<?xml version="1.0" encoding="UTF-8"?>
<svg width="20px" height="20px" viewBox="0 0 20 20" version="1.1" xmlns="http://www.w3.org/2000/svg" xmlns:xlink="http://www.w3.org/1999/xlink">
    <!-- Generator: Sketch 55.2 (78181) - https://sketchapp.com -->
    <title>Icon Gear</title>
    <desc>Created with Sketch.</desc>
    <defs>
        <path d="M976,59.3333333 C974.533333,59.3333333 973.333333,60.5333333 973.333333,62 C973.333333,63.4666667 974.533333,64.6666667 976,64.6666667 C977.466667,64.6666667 978.666667,63.4666667 978.666667,62 C978.666667,60.5333333 977.466667,59.3333333 976,59.3333333 Z M983,62 C983,62.3066667 982.973333,62.6133333 982.933333,62.9066667 L984.906667,64.4533333 C985.08,64.6 985.133333,64.8533333 985.013333,65.0533333 L983.146667,68.28 C983.026667,68.48 982.786667,68.56 982.573333,68.48 L980.253333,67.5466667 C979.773333,67.92 979.24,68.2266667 978.68,68.4666667 L978.333333,70.9333333 C978.293333,71.16 978.093333,71.3333333 977.866667,71.3333333 L974.133333,71.3333333 C973.906667,71.3333333 973.706667,71.16 973.666667,70.9466667 L973.32,68.48 C972.746667,68.24 972.226667,67.9333333 971.746667,67.56 L969.426667,68.4933333 C969.213333,68.5733333 968.973333,68.4933333 968.853333,68.2933333 L966.986667,65.0666667 C966.866667,64.8666667 966.92,64.6133333 967.093333,64.4666667 L969.066667,62.92 C969.026667,62.6133333 969,62.3066667 969,62 C969,61.6933333 969.026667,61.3866667 969.066667,61.0933333 L967.093333,59.5466667 C966.92,59.4 966.866667,59.1466667 966.986667,58.9466667 L968.853333,55.72 C968.973333,55.52 969.213333,55.44 969.426667,55.52 L971.746667,56.4533333 C972.226667,56.08 972.76,55.7733333 973.32,55.5333333 L973.666667,53.0666667 C973.706667,52.84 973.906667,52.6666667 974.133333,52.6666667 L977.866667,52.6666667 C978.093333,52.6666667 978.293333,52.84 978.333333,53.0533333 L978.68,55.52 C979.253333,55.76 979.773333,56.0666667 980.253333,56.44 L982.573333,55.5066667 C982.786667,55.4266667 983.026667,55.5066667 983.146667,55.7066667 L985.013333,58.9333333 C985.133333,59.1333333 985.08,59.3866667 984.906667,59.5333333 L982.933333,61.08 C982.973333,61.3866667 983,61.6933333 983,62 Z" id="path-1"></path>
    </defs>
    <g id="Round-3" stroke="none" stroke-width="1" fill="none" fill-rule="evenodd">
        <g id="Blueleaf-Web-App-Manage-Models" transform="translate(-1315.000000, -302.000000)" fill-rule="nonzero">
            <g id="Group-7" transform="translate(314.000000, 132.000000)">
                <g id="Group-8" transform="translate(35.000000, 118.000000)">
                    <g id="Icon-Gear">
                        <use fill="#E8ECEF" xlink:href="#path-1"></use>
                        <use fill-opacity="0.2" fill="#36454F" xlink:href="#path-1"></use>
                    </g>
                </g>
            </g>
        </g>
    </g>
</svg>