<?xml version="1.0" encoding="UTF-8"?>
<svg width="40px" height="40px" viewBox="0 0 40 40" version="1.1" xmlns="http://www.w3.org/2000/svg" xmlns:xlink="http://www.w3.org/1999/xlink">
    <!-- Generator: Sketch 55.2 (78181) - https://sketchapp.com -->
    <title>Icon Rebalance</title>
    <desc>Created with Sketch.</desc>
    <g id="Round-3" stroke="none" stroke-width="1" fill="none" fill-rule="evenodd">
        <g id="Blueleaf-Web-App-Dashboard" transform="translate(-32.000000, -474.000000)" fill-rule="nonzero">
            <g id="Icon-Rebalance" transform="translate(32.000000, 474.000000)">
                <circle id="Oval" fill="#007DC4" cx="20" cy="20" r="20"></circle>
                <path d="M33,17.1316349 L24.757693,17.1316349 C24.4850265,17.1412979 24.2348383,16.9799824 24.1291878,16.7263894 C24.0235372,16.4727964 24.0844367,16.1797625 24.2821753,15.9902499 L27.1579253,12.9998212 C23.2288391,9.02387711 16.8617419,8.96289055 12.8584284,12.862855 C10.9617162,14.7463795 9.89373688,17.3182128 9.89373688,20.0022182 C9.89373688,22.6862236 10.9617162,25.2580568 12.8584284,27.1415813 C16.8247296,31.0792861 23.191624,31.0792861 27.1579253,27.1415813 C28.8632529,25.5157418 29.9015592,23.3041399 30.0676408,20.9438608 C30.1260643,20.4045006 30.5824554,19.9988213 31.1205729,20.0079251 L31.9244242,20.0079251 C32.2143084,20.0097032 32.490037,20.134515 32.6839628,20.3517391 C32.8778887,20.5689631 32.9720665,20.8584983 32.9433907,21.1493101 C32.6057388,24.1762829 31.2841052,27.0055691 29.1845365,29.1960743 C26.6423114,31.7239572 23.1866269,33.096038 19.6172559,32.9947663 C16.0478849,32.8934947 12.674218,31.3276488 10.2770465,28.6596234 C5.62133905,23.4037134 5.96675961,15.3653483 11.0558877,10.5350215 C16.1450159,5.70469474 24.12492,5.84110913 29.0486743,10.8426036 L31.867815,7.88641641 C32.0584792,7.70051749 32.3401845,7.64595832 32.5856055,7.74739858 C32.8310266,7.84883885 32.9936605,8.08705749 33,8.35438426 L33,17.1316349 Z" id="Path" fill="#FFFFFF" opacity="0.5" transform="translate(20.000000, 20.000000) rotate(-90.000000) translate(-20.000000, -20.000000) "></path>
                <path d="M21.0909338,12.0067426 C20.8942428,11.9789754 20.6951692,12.0377927 20.5451516,12.1679967 C20.395134,12.2982007 20.3088901,12.4870174 20.3087045,12.6856586 L20.3087045,20.3087045 L12.6856586,20.3087045 C12.4870174,20.3088901 12.2982007,20.395134 12.1679967,20.5451516 C12.0377927,20.6951692 11.9789754,20.8942428 12.0067426,21.0909338 C12.5884459,25.1965567 16.1984012,28.1855016 20.3404658,27.9910302 C24.4825303,27.7965588 27.7965588,24.4825303 27.9910302,20.3404658 C28.1855016,16.1984012 25.1965567,12.5884459 21.0909338,12.0067426 Z" id="Path" fill="#FFFFFF"></path>
            </g>
        </g>
    </g>
</svg>