<svg xmlns="http://www.w3.org/2000/svg" width="10" height="15" viewBox="0 0 10 15">
  <path fill="#C80000" d="M4.49483496,0.0561076123 C4.30228542,0.0618449489 4.11953302,0.142318312 3.98529489,0.280478967 L0.344688993,3.92108471 C0.161231338,4.06089531 0.0533164972,4.27814354 0.0527294468,4.50880215 C0.0521816313,4.73946076 0.159026287,4.95723731 0.341793842,5.09794884 C0.343238003,5.09891891 0.344685575,5.09988389 0.346136531,5.10084377 L3.98529489,8.7400019 C4.17118785,8.93361815 4.44722812,9.01161123 4.70695663,8.94390194 C4.96668514,8.87619265 5.16951656,8.67336129 5.23722592,8.4136328 C5.30493529,8.1539043 5.22694229,7.87786402 5.03332609,7.691971 L2.59274501,5.2513897 L13.2343642,5.2513897 C13.5016492,5.25516977 13.7502643,5.1147401 13.8850099,4.88387394 C14.0197556,4.65300778 14.0197556,4.36747324 13.8850099,4.13660708 C13.7502643,3.90574092 13.5016492,3.76531125 13.2343642,3.76909132 L2.59274501,3.76909132 L5.03332609,1.32851002 C5.25252859,1.11543598 5.31843769,0.789645659 5.19929481,0.50812256 C5.08015192,0.226599461 4.8003985,0.0470963576 4.49483496,0.0561076123 Z" transform="matrix(0 -1 -1 0 9.5 14.833)"/>
</svg>
