<?xml version="1.0" encoding="UTF-8"?>
<svg width="40px" height="40px" viewBox="0 0 40 40" version="1.1" xmlns="http://www.w3.org/2000/svg" xmlns:xlink="http://www.w3.org/1999/xlink">
    <!-- Generator: Sketch 55.2 (78181) - https://sketchapp.com -->
    <title>Icon View Securites</title>
    <desc>Created with Sketch.</desc>
    <g id="Round-3" stroke="none" stroke-width="1" fill="none" fill-rule="evenodd">
        <g id="Blueleaf-Web-App-Dashboard" transform="translate(-32.000000, -546.000000)">
            <g id="Group-6" transform="translate(32.000000, 546.000000)">
                <g id="Icon-View-Securites">
                    <circle id="Oval" fill="#007DC4" fill-rule="nonzero" cx="20" cy="20" r="20"></circle>
                    <path d="M12,18.5 C11.17,18.5 10.5,19.17 10.5,20 C10.5,20.83 11.17,21.5 12,21.5 C12.83,21.5 13.5,20.83 13.5,20 C13.5,19.17 12.83,18.5 12,18.5 Z M12,12.5 C11.17,12.5 10.5,13.17 10.5,14 C10.5,14.83 11.17,15.5 12,15.5 C12.83,15.5 13.5,14.83 13.5,14 C13.5,13.17 12.83,12.5 12,12.5 Z M12,24.5 C11.17,24.5 10.5,25.18 10.5,26 C10.5,26.82 11.18,27.5 12,27.5 C12.82,27.5 13.5,26.82 13.5,26 C13.5,25.18 12.83,24.5 12,24.5 Z M15,27 L29,27 L29,25 L15,25 L15,27 Z M15,21 L29,21 L29,19 L15,19 L15,21 Z M15,13 L15,15 L29,15 L29,13 L15,13 Z" id="Shape" fill="#FFFFFF" fill-rule="nonzero"></path>
                    <polygon id="Path" points="8 8 32 8 32 32 8 32"></polygon>
                </g>
            </g>
        </g>
    </g>
</svg>