<?xml version="1.0" encoding="UTF-8"?>
<svg width="40px" height="40px" viewBox="0 0 40 40" version="1.1" xmlns="http://www.w3.org/2000/svg" xmlns:xlink="http://www.w3.org/1999/xlink">
    <!-- Generator: Sketch 55.2 (78181) - https://sketchapp.com -->
    <title>Icon Dashboard</title>
    <desc>Created with Sketch.</desc>
    <g id="Round-3" stroke="none" stroke-width="1" fill="none" fill-rule="evenodd">
        <g id="Blueleaf-Web-App-Dashboard" transform="translate(-32.000000, -164.000000)" fill-rule="nonzero">
            <g id="Group-2" transform="translate(32.000000, 164.000000)">
                <g id="22-Billing,-Flexible-Templates">
                    <g id="Icon-Dashboard">
                        <circle id="Oval" fill="#007DC4" cx="20" cy="20" r="20"></circle>
                        <path d="M28.9,9 L11.1,9 C9.94020203,9 9,9.94020203 9,11.1 L9,28.9 C9,30.059798 9.94020203,31 11.1,31 L28.9,31 C30.059798,31 31,30.059798 31,28.9 L31,11.1 C31,9.94020203 30.059798,9 28.9,9 Z M28.9,17.38 L19.48,17.38 L19.48,11.1 L28.9,11.1 L28.9,17.38 Z M11.1,11.1 L17.38,11.1 L17.38,28.9 L11.1,28.9 L11.1,11.1 Z M19.48,28.9 L19.48,19.48 L28.91,19.48 L28.91,28.9 L19.48,28.9 Z" id="Shape" fill="#FFFFFF"></path>
                    </g>
                </g>
            </g>
        </g>
    </g>
</svg>