<?xml version="1.0" encoding="UTF-8"?>
<svg width="40px" height="40px" viewBox="0 0 40 40" version="1.1" xmlns="http://www.w3.org/2000/svg" xmlns:xlink="http://www.w3.org/1999/xlink">
    <!-- Generator: Sketch 55.2 (78181) - https://sketchapp.com -->
    <title>Icon Monitor Accounts</title>
    <desc>Created with Sketch.</desc>
    <g id="Round-3" stroke="none" stroke-width="1" fill="none" fill-rule="evenodd">
        <g id="Blueleaf-Web-App-Dashboard" transform="translate(-32.000000, -236.000000)" fill-rule="nonzero">
            <g id="Group-3" transform="translate(32.000000, 236.000000)">
                <g id="14-Investment-Reporting,-Net-Worth">
                    <g id="Icon-Monitor-Accounts">
                        <circle id="Oval" fill="#007DC4" cx="20" cy="20" r="20"></circle>
                        <path d="M29.45,16.6 C27.45,16.09 27.33,15.66 27.33,15.29 C27.33,14.66 28.01,14.29 29.08,14.29 C30.41,14.29 30.63,14.9 30.66,15.56 L30.66,16.04 L33.5,16.04 L33.5,15.52 C33.4566321,13.8956096 32.3825742,12.4796232 30.83,12 L30.83,11 C30.83,10.4477153 30.3822847,10 29.83,10 L28.33,10 C27.7777153,10 27.33,10.4477153 27.33,11 L27.33,11.91 C25.6838613,12.2254024 24.4731723,13.6351088 24.41,15.31 C24.41,17.9 26.86,18.79 28.71,19.24 C30.83,19.74 30.83,20.43 30.83,20.76 C30.83,21.38 30.17,21.76 29.08,21.76 C27.21,21.76 27.08,20.76 27.08,20.46 L27.08,20.01 L24.23,20.01 L24.23,20.54 C24.3371659,22.2796425 25.5940131,23.733 27.3,24.09 L27.3,25 C27.3,25.5522847 27.7477153,26 28.3,26 L29.8,26 C30.3522847,26 30.8,25.5522847 30.8,25 L30.8,24.11 C32.456281,23.8435537 33.6828099,22.4273554 33.71,20.75 C33.74,17.71 30.74,16.93 29.45,16.6 Z" id="Path" fill="#FFFFFF" opacity="0.5"></path>
                        <path d="M15.75,12 C17.8210678,12 19.5,13.6789322 19.5,15.75 C19.5,17.8210678 17.8210678,19.5 15.75,19.5 C13.6789322,19.5 12,17.8210678 12,15.75 C11.9836115,14.7505042 12.3734348,13.7871253 13.08028,13.08028 C13.7871253,12.3734348 14.7505042,11.9836115 15.75,12 L15.75,12 Z M23.25,27 L8.25,27 L8.25,25.38 C8.23223408,24.7857763 8.51396145,24.2223215 9,23.88 C10.9849215,22.534312 13.3552247,21.8741387 15.75,22 C18.1222124,21.9153622 20.4677232,22.5234576 22.5,23.75 C22.984635,24.0935271 23.2659594,24.6561757 23.25,25.25 L23.25,27 Z" id="Shape" fill="#FFFFFF"></path>
                    </g>
                </g>
            </g>
        </g>
    </g>
</svg>