<?xml version="1.0" encoding="UTF-8"?>
<svg width="80px" height="80px" viewBox="0 0 80 80" version="1.1" xmlns="http://www.w3.org/2000/svg" xmlns:xlink="http://www.w3.org/1999/xlink">
    <!-- Generator: Sketch 55.2 (78181) - https://sketchapp.com -->
    <title>Icon Select Accounts</title>
    <desc>Created with Sketch.</desc>
    <defs>
        <circle id="path-1" cx="40" cy="40" r="40"></circle>
    </defs>
    <g id="Round-3" stroke="none" stroke-width="1" fill="none" fill-rule="evenodd">
        <g id="Blueleaf-Web-App-Rebalence" transform="translate(-821.000000, -250.000000)">
            <g id="Group-10" transform="translate(314.000000, 132.000000)">
                <g id="Group-8" transform="translate(456.000000, 118.000000)">
                    <g id="Icon-Select-Accounts" transform="translate(51.000000, 0.000000)">
                        <path d="M61.6166045,34.1538462 C58.5396814,33.3692308 58.355066,32.7076923 58.355066,32.1384615 C58.355066,31.1692308 59.4012199,30.6 61.0473737,30.6 C63.0935275,30.6 63.4319891,31.5384615 63.4781429,32.5538462 L63.4781429,33.2923077 L67.8473737,33.2923077 L67.8473737,32.4923077 C67.7806538,29.9932455 66.1282571,27.8148049 63.7396814,27.0769231 L63.7396814,25.5384615 C63.7396814,24.6887927 63.0508887,24 62.2012199,24 L59.8935275,24 C59.0438587,24 58.355066,24.6887927 58.355066,25.5384615 L58.355066,26.9384615 C55.8225449,27.423696 53.9599464,29.5924751 53.8627583,32.1692308 C53.8627583,36.1538462 57.6319891,37.5230769 60.4781429,38.2153846 C63.7396814,38.9846154 63.7396814,40.0461538 63.7396814,40.5538462 C63.7396814,41.5076923 62.7242968,42.0923077 61.0473737,42.0923077 C58.1704506,42.0923077 57.9704506,40.5538462 57.9704506,40.0923077 L57.9704506,39.4 L53.5858352,39.4 L53.5858352,40.2153846 C53.7507058,42.8917577 55.6843169,45.1276923 58.3089122,45.6769231 L58.3089122,47.0769231 C58.3089122,47.9265919 58.9977049,48.6153846 59.8473737,48.6153846 L62.155066,48.6153846 C63.0047349,48.6153846 63.6935275,47.9265919 63.6935275,47.0769231 L63.6935275,45.7076923 C66.2416521,45.2977749 68.1286197,43.1190083 68.1704506,40.5384615 C68.2166045,35.8615385 63.6012199,34.6615385 61.6166045,34.1538462 Z" id="Path" fill="#FFFFFF" fill-rule="nonzero" opacity="0.5"></path>
                        <path d="M40.5396814,27.0769231 C43.7259396,27.0769231 46.3089122,29.6598957 46.3089122,32.8461538 C46.3089122,36.032412 43.7259396,38.6153846 40.5396814,38.6153846 C37.3534232,38.6153846 34.7704506,36.032412 34.7704506,32.8461538 C34.7452375,31.3084679 35.3449656,29.8263467 36.4324199,28.7388924 C37.5198742,27.6514381 39.0019955,27.05171 40.5396814,27.0769231 L40.5396814,27.0769231 Z M52.0781429,50.1538462 L29.0012199,50.1538462 L29.0012199,47.6615385 C28.9738877,46.7473481 29.4073144,45.8804946 30.155066,45.3538462 C33.2087914,43.2835569 36.8554117,42.2679056 40.5396814,42.4615385 C44.189239,42.3313265 47.7977171,43.2668578 50.9242968,45.1538462 C51.6698891,45.6823493 52.1026958,46.5479627 52.0781429,47.4615385 L52.0781429,50.1538462 Z" id="Shape" fill="#FFFFFF" fill-rule="nonzero"></path>
                        <polygon id="Path" fill="#FFFFFF" fill-rule="nonzero" points="17.94 50 11 43 13.8 40.18 17.94 44.34 28.2 34 31 36.82"></polygon>
                    </g>
                </g>
            </g>
        </g>
    </g>
</svg>