<?xml version="1.0" encoding="utf-8"?>
<!-- Generator: Adobe Illustrator 23.0.6, SVG Export Plug-In . SVG Version: 6.00 Build 0)  -->
<svg version="1.1" id="Layer_1" xmlns="http://www.w3.org/2000/svg" xmlns:xlink="http://www.w3.org/1999/xlink" x="0px" y="0px"
	 viewBox="0 0 135 54" style="enable-background:new 0 0 135 54;" xml:space="preserve">
<style type="text/css">
	.st0{fill:#FFFFFF;}
</style>
<title>Rebalancing Blueleaf Logo</title>
<desc>Created with Sketch.</desc>
<g id="Blueleaf-Web-App-Delivery">
	<g id="Blueleaf-Web-App-Manage-Models" transform="translate(-32.000000, -20.000000)">
		<g id="Nav">
			<g id="Group-14" transform="translate(32.000000, 20.000000)">
				<g id="Group-16">
					<g id="Rebalancing-Blueleaf-Logo" transform="translate(0.000000, 0.292000)">
						<path id="Rebalancingby" class="st0" d="M0,12.7V0h3.9c1.3,0,1.9,0.1,2.4,0.3c1.3,0.5,2.1,1.8,2.1,3.4c0,1.6-0.9,3-2.3,3.4v0
							c0,0,0.1,0.2,0.4,0.6l2.7,4.9h-2L4.5,7.7H1.8v5.1H0z M1.8,6.1h2.6c1.4,0,2.2-0.9,2.2-2.3c0-0.9-0.4-1.6-1-2
							C5.3,1.7,4.8,1.5,3.9,1.5H1.8V6.1z M10.6,8.2c0-2.9,2-4.8,4.6-4.8c2.6,0,3.9,1.9,3.9,4.3c0,0.2-0.1,0.8-0.1,0.8h-6.6
							c0.1,2,1.5,3,3.1,3c1.6,0,2.7-1.1,2.7-1.1l0.7,1.3c0,0-1.4,1.3-3.5,1.3C12.5,12.9,10.6,10.9,10.6,8.2z M12.4,7.1h4.9
							c-0.1-1.6-1-2.3-2.2-2.3C13.8,4.8,12.7,5.6,12.4,7.1z M21.2,12.7V0h1.7v4.2c0,0.4,0,0.8,0,0.8h0c0,0,0.8-1.5,2.9-1.5
							c2.4,0,4,1.9,4,4.8c0,2.9-1.7,4.8-4.1,4.8c-2,0-2.9-1.6-2.9-1.6h0c0,0,0,0.3,0,0.7v0.7H21.2z M22.9,8.2c0,1.6,0.8,3.2,2.6,3.2
							c1.4,0,2.6-1.2,2.6-3.3c0-2-1.1-3.3-2.6-3.3C24.1,4.9,22.9,5.9,22.9,8.2z M31.2,10.2c0-3,4-3.1,5.5-3.1h0.4V6.9
							c0-1.5-0.8-2-2-2c-1.4,0-2.5,0.9-2.5,0.9l-0.7-1.3c0,0,1.3-1.1,3.4-1.1c2.3,0,3.6,1.3,3.6,3.6v5.8h-1.6v-0.9
							c0-0.4,0-0.7,0-0.7h0c0,0-0.7,1.8-2.9,1.8C32.8,12.9,31.2,12,31.2,10.2z M33,10.1c0,0.7,0.6,1.5,1.7,1.5
							c1.5,0,2.4-1.5,2.4-2.9V8.3h-0.5C35.4,8.3,33,8.4,33,10.1z M41.4,10.2V0h1.7v9.9c0,1.1,0.4,1.3,1,1.3c0.2,0,0.3,0,0.3,0v1.5
							c0,0-0.3,0-0.6,0C42.8,12.8,41.4,12.5,41.4,10.2z M45.5,10.2c0-3,4-3.1,5.5-3.1h0.4V6.9c0-1.5-0.8-2-2-2
							c-1.4,0-2.5,0.9-2.5,0.9l-0.7-1.3c0,0,1.3-1.1,3.4-1.1c2.3,0,3.6,1.3,3.6,3.6v5.8h-1.6v-0.9c0-0.4,0-0.7,0-0.7h0
							c0,0-0.7,1.8-2.9,1.8C47.1,12.9,45.5,12,45.5,10.2z M47.3,10.1c0,0.7,0.6,1.5,1.7,1.5c1.5,0,2.4-1.5,2.4-2.9V8.3H51
							C49.7,8.3,47.3,8.4,47.3,10.1z M55.8,12.7V3.6h1.7v1.2c0,0.4,0,0.7,0,0.7h0c0.4-0.8,1.4-2.1,3.4-2.1C63,3.4,64,4.6,64,6.9v5.8
							h-1.7V7.3C62.3,6,62,5,60.5,5c-1.4,0-2.5,0.9-2.9,2.2c-0.1,0.4-0.1,0.8-0.1,1.2v4.3H55.8z M66,8.2c0-2.7,2-4.8,4.9-4.8
							c2.3,0,3.4,1.3,3.4,1.3l-0.8,1.2c0,0-1-1-2.5-1c-1.8,0-3.2,1.4-3.2,3.2c0,1.9,1.3,3.3,3.2,3.3c1.7,0,2.8-1.2,2.8-1.2l0.7,1.3
							c0,0-1.3,1.5-3.6,1.5C68,12.9,66,10.9,66,8.2z M76.4,1.8V0h1.8v1.8H76.4z M76.5,12.7V3.6h1.7v9.1H76.5z M80.9,12.7V3.6h1.7
							v1.2c0,0.4,0,0.7,0,0.7h0c0.4-0.8,1.4-2.1,3.4-2.1c2.1,0,3.1,1.2,3.1,3.5v5.8h-1.7V7.3C87.4,6,87.2,5,85.7,5
							c-1.4,0-2.5,0.9-2.9,2.2c-0.1,0.4-0.1,0.8-0.1,1.2v4.3H80.9z M92.6,14.4c0,0,1.1,0.6,2.5,0.6c1.6,0,2.9-0.7,2.9-2.6v-0.7
							c0-0.3,0-0.6,0-0.6h0c-0.5,0.9-1.4,1.4-2.7,1.4c-2.5,0-4.1-2-4.1-4.7c0-2.6,1.5-4.6,4-4.6c2.2,0,2.9,1.4,2.9,1.4h0
							c0,0,0-0.1,0-0.3V3.6h1.7v8.7c0,3-2.3,4.2-4.6,4.2c-1.1,0-2.2-0.3-3.1-0.8L92.6,14.4z M95.6,11.1c1.3,0,2.4-0.8,2.4-3.1
							s-1.2-3.1-2.6-3.1c-1.6,0-2.5,1.2-2.5,3C93,9.8,94,11.1,95.6,11.1z M107.1,12.7V0h1.7v4.2c0,0.4,0,0.8,0,0.8h0
							c0,0,0.8-1.5,2.9-1.5c2.4,0,4,1.9,4,4.8c0,2.9-1.7,4.8-4.1,4.8c-2,0-2.9-1.6-2.9-1.6h0c0,0,0,0.3,0,0.7v0.7H107.1z M108.8,8.2
							c0,1.6,0.8,3.2,2.6,3.2c1.4,0,2.6-1.2,2.6-3.3c0-2-1.1-3.3-2.6-3.3C110.1,4.9,108.8,5.9,108.8,8.2z M116.6,15.9l0.6-1.3
							c0,0,0.5,0.4,1.1,0.4c0.7,0,1.3-0.5,1.6-1.3l0.5-1l-3.8-9h2l2.3,6c0.2,0.5,0.3,1.1,0.3,1.1h0c0,0,0.1-0.6,0.3-1.1l2.2-6h1.9
							l-4.3,10.7c-0.6,1.4-1.7,2.1-3,2.1C117.4,16.5,116.6,15.9,116.6,15.9z"/>
						<g id="blueleaf_logo_color" transform="translate(0.000000, 24.708000)">
							<path id="Shape" class="st0" d="M10.8,7.7c-1.1,0-2.2,0.2-3.2,0.7c-1.1,0.5-2,1.2-2.8,2.1v-10H0v27.7h4.7v-2.1
								c0.8,0.8,1.8,1.5,2.8,2c1,0.4,2,0.6,3.1,0.6c2.5,0,4.6-1,6.4-3c1.8-2,2.7-4.5,2.7-7.5c0-3.1-0.9-5.6-2.6-7.6
								C15.6,8.8,13.2,7.7,10.8,7.7z M13.3,24.3c0.4-5.8-3.1-7.1-3.1-7.1s1.8,4.5,1.4,7.5c-3.9,0.5-6.3-2.2-5.7-5s-0.3-8-0.3-8
								C6.3,12.3,7.1,13,8,13.4c1.5,0.5,3.2,0.1,4.7,0.5c2.6,0.8,3.5,2.6,3.6,4.3C16.4,19.9,16.6,21.6,13.3,24.3L13.3,24.3z"/>
							<polygon id="Rectangle-path" class="st0" points="23.1,0.5 27.9,0.5 27.9,28.3 23.1,28.3 							"/>
							<path class="st0" d="M62.7,7.7c-2.7-0.1-5.3,1.1-7.1,3c-1.9,2-2.8,4.5-2.8,7.6c0,3,0.9,5.5,2.8,7.4s4.3,3,7.3,3
								c1.7,0,3.4-0.3,5-1.1c1.5-0.8,2.7-1.9,3.6-3.3l-4-2c-1.2,1.3-2.9,2-4.6,2c-2.8,0.2-5.2-1.9-5.5-4.7h15.3v-1
								c0-3.3-0.9-6-2.8-8S65.7,7.7,62.7,7.7z M57.7,15.8c0.4-1,1-1.9,1.8-2.6c1-0.8,2.2-1.2,3.5-1.2c1.2,0,2.3,0.3,3.2,1.1
								c0.9,0.7,1.6,1.6,1.8,2.7H57.7z"/>
							<polygon class="st0" points="75.5,0.5 77.9,0.5 77.9,28.3 75.5,28.3 							"/>
							<path class="st0" d="M98.2,11.6c-1.8-2.5-4.7-4-7.8-3.9c-3-0.1-5.8,1.3-7.6,3.8c-1.5,2-2.2,4.4-2.2,6.8
								c0,2.6,0.9,5.2,2.6,7.3c1.8,2.1,4.2,3.2,7.3,3.2c1.3,0,2.6-0.2,3.8-0.7c1.1-0.5,2.1-1.1,3-2c1-1,1.8-2.1,2.4-3.4l-2.1-1.1
								c-0.5,1.1-1.3,2-2.1,2.9c-0.7,0.6-1.5,1.1-2.4,1.4c-0.9,0.3-1.8,0.5-2.8,0.5c-1.9,0-3.8-0.8-5.1-2.2
								c-1.3-1.5-2.1-3.4-2.1-5.7h17.1C100.3,15.7,99.6,13.4,98.2,11.6z M83.4,16.2c0.5-1.8,1.3-3.2,2.2-4.2c1.3-1.3,3-1.9,4.8-1.9
								c1.1,0,2.2,0.3,3.2,0.8c1,0.5,1.8,1.1,2.5,2c0.7,1,1.2,2.1,1.4,3.3L83.4,16.2z"/>
							<path class="st0" d="M120,11.9c-0.8-1.3-2-2.4-3.3-3.2c-1.3-0.7-2.8-1.1-4.2-1.1c-2.6,0-5.2,1.1-6.9,3.1
								c-1.9,2-2.9,4.7-2.9,7.4c0,2.8,1,5.5,2.9,7.5c1.7,2,4.2,3.1,6.9,3.1c1.5,0,2.9-0.3,4.2-1c1.3-0.7,2.5-1.7,3.4-2.9v3.4h2.4
								v-20h-2.4L120,11.9z M119.2,22.4c-0.6,1.2-1.6,2.2-2.8,2.9c-1.1,0.7-2.5,1.1-3.8,1.1c-1.3,0-2.6-0.4-3.7-1.1
								c-1.2-0.7-2.1-1.8-2.8-3c-1.4-2.5-1.4-5.5,0-8.1c0.6-1.2,1.6-2.2,2.7-3c2.9-1.8,6.8-1.3,9.1,1.3c1.5,1.6,2.3,3.7,2.2,5.8
								C120.2,19.8,119.9,21.2,119.2,22.4z"/>
							<path class="st0" d="M130.2,3.4c0.1-0.3,0.3-0.5,0.6-0.7c0.4-0.2,0.8-0.3,1.2-0.3c0.8,0,1.6,0.3,2.3,0.6V0.5
								c-0.9-0.3-1.9-0.5-2.9-0.5c-0.8,0-1.5,0.2-2.2,0.5c-0.6,0.3-1,0.9-1.3,1.5c-0.3,0.6-0.4,1.6-0.4,3.1v3.1h-2.5v2.2h2.5v17.8
								h2.4V10.5h4V8.2h-4V5.5C130.1,4.8,130.2,4.1,130.2,3.4z"/>
							<path class="st0" d="M44.2,8.2v10.2c0,1.7-0.1,2.8-0.3,3.3c-0.2,0.7-0.6,1.3-1.2,1.8s-1.3,0.6-2,0.6c-0.7,0-1.4-0.2-2-0.6
								c-0.5-0.4-1-1-1.2-1.7c-0.3-0.7-0.4-2-0.4-3.9V8.2h-4.8v8.3c0,3.2,0.2,5.4,0.5,6.6c0.4,1.6,1.4,3.1,2.7,4.1
								c1.3,1,3,1.5,5,1.5c1.2,0,2.5-0.2,3.6-0.6v0.7H49V8.2H44.2z"/>
						</g>
					</g>
				</g>
			</g>
		</g>
	</g>
</g>
</svg>
