<svg id="Logo_Color" data-name="Logo Color" xmlns="http://www.w3.org/2000/svg" width="188" height="50" viewBox="0 0 188 50">
  <metadata><?xpacket begin="﻿" id="W5M0MpCehiHzreSzNTczkc9d"?>
<x:xmpmeta xmlns:x="adobe:ns:meta/" x:xmptk="Adobe XMP Core 5.6-c140 79.160451, 2017/05/06-01:08:21        ">
   <rdf:RDF xmlns:rdf="http://www.w3.org/1999/02/22-rdf-syntax-ns#">
      <rdf:Description rdf:about=""/>
   </rdf:RDF>
</x:xmpmeta>
<?xpacket end="w"?></metadata>
<defs>
    <style>
      .cls-1 {
        fill: #f05a24;
      }

      .cls-1, .cls-2 {
        fill-rule: evenodd;
      }

      .cls-2 {
        fill: #818181;
      }
    </style>
  </defs>
  <path class="cls-1" d="M5,14.409V29.2a12.271,12.271,0,0,0,12.786,9.159c10.655-.352,12.786-8.454,12.786-8.454v-15.5H26.31V29.2s-3.3,5.6-8.524,4.932c-4.085-.524-7.1-2.114-7.813-5.636V14.409H5Zm31.964,0v23.25h4.262V27.8H50.46l6.393,9.864h5.682L54.722,27.091s6.866-1.292,5.683-7.75c0,0-1.421-4.814-6.393-4.932H36.964Zm31.254,0v23.25h22.73V33.432H72.48V27.091H88.107V23.568H72.48V17.932H90.948V14.409H68.218Zm29.123,0v23.25h16.338s8.121,0.423,9.944-6.341c0,0-.592-5.636-3.552-6.341V23.568s4.4-6.552-4.261-9.159H97.341Zm28.413,23.25L141.381,13l17.048,24.659h-5.683L141.381,20.75,130.726,37.659h-4.972Zm35.516-23.25v23.25H184V33.432H165.532V14.409H161.27ZM52.591,23.568H41.226V18.636H52.591A2.674,2.674,0,0,1,55.433,21.1,2.674,2.674,0,0,1,52.591,23.568Zm62.082,9.864H101.6V27.8h13.07a3.067,3.067,0,0,1,3.267,2.818A3.067,3.067,0,0,1,114.673,33.432Zm-1.136-10.568H101.6V18.636h11.934c1.647,0,2.983.946,2.983,2.114S115.184,22.864,113.537,22.864Z"/>
  <path class="cls-2" d="M141.381,27.8h0l6.393,9.159H135.7Z"/>
</svg>
